<svg style="display: none" xmlns="http://www.w3.org/2000/svg" xmlns:xlink="http://www.w3.org/1999/xlink">

    <svg id="arrow-down" viewBox="0 0 14 8" preserveAspectRatio="xMidYMid meet" xmlns="http://www.w3.org/2000/svg">
        <path fill-rule="evenodd" style="fill: var(--color-svg-fill)" clip-rule="evenodd" d="M6.69222 7.51184L0.858887 1.67851L2.0374 0.5L7.28148 5.74408L12.5256 0.5L13.7041 1.67851L7.87073 7.51184C7.54529 7.83728 7.01766 7.83728 6.69222 7.51184Z" />
    </svg>

    <svg id="cross" viewBox="0 0 14 14" xmlns="http://www.w3.org/2000/svg">
        <path style="fill: var(--color-svg-fill)" d="M8.38685 7.21729L11.834 3.77015L10.6849 2.6211L7.2378 6.06824L3.79065 2.62109L2.64161 3.77014L6.08875 7.21729L2.6416 10.6644L3.79065 11.8135L7.2378 8.36634L10.6849 11.8135L11.834 10.6644L8.38685 7.21729Z"></path>
    </svg>
    

   <svg id="checked" viewBox="0 0 40 30">
        <g transform="matrix(1 0 0 1 20 14.75)" >
        <path style="stroke: none; stroke-width: 1; stroke-dasharray: none; stroke-linecap: butt; stroke-dashoffset: 0; stroke-linejoin: miter; stroke-miterlimit: 4; fill: var(--color-svg-fill); fill-rule: nonzero; opacity: 1;" vector-effect="non-scaling-stroke"  transform=" translate(-20, -14.75)" d="M 38.9526 7.07425 L 17.757749999999998 28.4422 C 16.358949999999997 29.8526 14.092739999999997 29.8526 12.693739999999998 28.4422 L 1.0491099999999989 16.70188 C -0.34969000000000117 15.29148 -0.34969000000000117 13.006699999999999 1.0491099999999989 11.5963 L 1.9527099999999988 10.68534 C 3.351509999999999 9.27494 5.6177199999999985 9.27494 7.0167199999999985 10.68534 L 15.22674 18.961869999999998 L 32.98478 1.0577999999999967 C 34.38358 -0.35260000000000336 36.64979 -0.35260000000000336 38.04879 1.0577999999999967 L 38.952389999999994 1.9687599999999967 C 40.34918999999999 3.379159999999997 40.34918999999999 5.665999999999997 38.952389999999994 7.074339999999997 z" stroke-linecap="round" />
        </g>
    </svg>

    <svg id="message" viewBox="0 0 25 24" xmlns="http://www.w3.org/2000/svg">
        <path style = "fill: var(--color-svg-fill);" d="M20.7383 3C21.2906 3 21.7383 3.44772 21.7383 4V18C21.7383 18.5523 21.2906 19 20.7383 19H13.0716L9.33828 21.8C8.67905 22.2944 7.73828 21.824 7.73828 21V19H4.73828C4.186 19 3.73828 18.5523 3.73828 18V4C3.73828 3.44772 4.186 3 4.73828 3H20.7383ZM19.7383 5H5.73828V17H8.73828C9.29057 17 9.73828 17.4477 9.73828 18V19L12.1383 17.2C12.3114 17.0702 12.5219 17 12.7383 17H19.7383V5ZM15.7383 12V14H7.73828V12H15.7383ZM17.7383 8V10H7.73828V8H17.7383Z"></path>
    </svg>


    <svg id="bin" viewBox="0 0 80 100" xml:space="preserve">
        <path style="stroke: none; stroke-width: 1; stroke-dasharray: none; stroke-linecap: butt; stroke-dashoffset: 0; stroke-linejoin: miter; stroke-miterlimit: 4; fill: var(--color-svg-fill); fill-rule: nonzero; opacity: 1;" vector-effect="non-scaling-stroke" d="M 80.00178 12.5 L 80.00178 17.5 C 80.00178 18.88 78.88177999999999 19.999 77.50178 19.999 L 2.5 19.999 C 1.119 19.999 0 18.88 0 17.5 L 0 12.5 C 0 11.119 1.119 10 2.5 10 L 24.99989 10 L 24.99989 5 C 24.99989 2.239 27.23889 0 29.99989 0 L 50.00078 0 C 52.76278 0 55.00078 2.238 55.00078 5 L 55.00078 10 L 77.50166999999999 10 C 78.88166999999999 10 80.00166999999999 11.119 80.00166999999999 12.5 z M 9.35 90.69897 C 9.718 95.94697000000001 14.088999999999999 100.01197 19.351 99.99997 L 60.74989 99.99997 C 66.01089 100.01297000000001 70.38189 95.94697000000001 70.75089 90.69897 L 75.00089 29.999990000000004 L 4.999110000000002 29.999990000000004 z" stroke-linecap="round"/>
    </svg>

    <svg id="send" viewBox="0 0 80 80" xml:space="preserve">
        <path style="stroke: none; stroke-width: 1; stroke-dasharray: none; stroke-linecap: butt; stroke-dashoffset: 0; stroke-linejoin: miter; stroke-miterlimit: 4; fill: var(--color-svg-fill); fill-rule: nonzero; opacity: 1;" vector-effect="non-scaling-stroke" d="M 79.83975 4.50128 L 55.468349999999994 77.65283 C 55.259949999999996 78.26333 54.885149999999996 78.80382999999999 54.38564999999999 79.21233 C 53.886149999999994 79.61993 53.28104999999999 79.88023 52.64144999999999 79.96212999999999 L 52.19284999999999 79.96212999999999 C 51.02094999999999 79.96032999999998 49.92994999999999 79.36252999999999 49.297549999999994 78.37622999999999 L 37.92124999999999 60.485139999999994 C 37.42905 59.71724 37.26154999999999 58.78453999999999 37.455349999999996 57.89283999999999 C 37.64915 57.00113999999999 38.18875 56.222339999999996 38.955749999999995 55.72823999999999 C 39.73094999999999 55.22783999999999 40.674549999999996 55.059439999999995 41.57525 55.25963999999999 C 42.47515 55.46073999999999 43.25765 56.01393999999999 43.74715 56.79643999999999 L 51.22815 68.65482999999999 L 71.11825 8.880469999999988 L 11.41375 28.771459999999987 L 23.16855 36.251559999999984 C 24.20945 36.91025999999999 24.81905 38.07405999999998 24.76905 39.30505999999998 C 24.71905 40.536059999999985 24.01565 41.646259999999984 22.92475 42.21765999999998 C 21.833849999999998 42.78995999999998 20.52095 42.73625999999998 19.47995 42.077559999999984 L 1.5888499999999972 30.735969999999984 C 0.8554499999999972 30.266469999999984 0.3268499999999972 29.536769999999983 0.10934999999999717 28.693269999999984 C -0.10815000000000283 27.849769999999985 0.0010499999999971782 26.955369999999984 0.41684999999999717 26.189269999999983 C 0.8317499999999971 25.42316999999998 1.521449999999997 24.843569999999982 2.346749999999997 24.565169999999984 L 75.49825 0.15878999999998555 C 76.09335 -0.028610000000014457 76.72834999999999 -0.05051000000001446 77.33624999999999 0.09508999999998555 C 77.94314999999999 0.24068999999998555 78.49905 0.5490899999999855 78.94494999999999 0.9858899999999856 C 79.40624999999999 1.4307899999999856 79.73474999999999 1.9958899999999855 79.89304999999999 2.616389999999986 C 80.05134999999999 3.237889999999986 80.03405 3.890189999999986 79.84114999999998 4.501689999999986 z M 52.26325 27.80347 L 52.26325 27.804370000000002 C 51.61725 27.161970000000004 50.74375 26.80167 49.83285 26.80167 C 48.92195 26.80167 48.04855 27.16197 47.40245 27.804370000000002 L 23.03105 52.17575 L 23.03105 52.17485 C 22.38955 52.82085 22.02925 53.69525 22.02925 54.60525 C 22.02925 55.51605 22.38955 56.39045 23.03105 57.03565 C 23.67705 57.67805 24.55055 58.038349999999994 25.46145 58.038349999999994 C 26.37235 58.038349999999994 27.24665 57.67804999999999 27.891849999999998 57.03565 L 52.26325 32.66427 L 52.26325 32.66517 C 52.89655 32.010070000000006 53.24405 31.131070000000005 53.23135 30.220370000000003 C 53.21865 29.30957 52.845549999999996 28.441570000000002 52.19405 27.80467 z" stroke-linecap="round"/>

    </svg>

    <svg id="info" viewBox="0 0 24 24" xmlns="http://www.w3.org/2000/svg">
        <path d="M12.75 11a.75.75 0 0 0-1.5 0h1.5zm-1.5 5.5a.75.75 0 0 0 1.5 0h-1.5zm8-4.5A7.25 7.25 0 0 1 12 19.25v1.5A8.75 8.75 0 0 0 20.75 12h-1.5zM12 19.25A7.25 7.25 0 0 1 4.75 12h-1.5A8.75 8.75 0 0 0 12 20.75v-1.5zM4.75 12A7.25 7.25 0 0 1 12 4.75v-1.5A8.75 8.75 0 0 0 3.25 12h1.5zM12 4.75A7.25 7.25 0 0 1 19.25 12h1.5A8.75 8.75 0 0 0 12 3.25v1.5zM11.25 11v5.5h1.5V11h-1.5z"></path>
        <circle cx="12" cy="8" r="1"></circle>
    </svg>

    <svg id="edit" viewBox="0 0 80 80" xmlns="http://www.w3.org/2000/svg" xml:space="preserve">

        <g transform="matrix(0.26 0 0 0.26 50.26 30.29)" id="_jVxMEd4rCyK-i_LoquSl">
        <path style="stroke: none; stroke-width: 1; stroke-dasharray: none; stroke-linecap: butt; stroke-dashoffset: 0; stroke-linejoin: miter; stroke-miterlimit: 4; fill-rule: nonzero; opacity: 1;" vector-effect="non-scaling-stroke" transform=" translate(-413.86, -338.12)" d="M 468.4 224.46 C 452.705 224.417031 437.642 230.6592 426.58 241.792 L 327.98199999999997 340.39 C 310.15 358.12399999999997 300.154 382.253 300.22799999999995 407.402 L 300.22799999999995 451.777 L 344.60299999999995 451.777 C 369.73599999999993 451.8395 393.84899999999993 441.84729999999996 411.568 424.027 L 510.216 325.379 C 521.282 314.285 527.493 299.25 527.486 283.57800000000003 C 527.4789999999999 267.90600000000006 521.2515999999999 252.87900000000002 510.174 241.79700000000003 C 499.096 230.711 484.06899999999996 224.47700000000003 468.40099999999995 224.461 z M 483.412 298.624 L 384.80999999999995 397.22200000000004 C 374.17699999999996 407.92900000000003 359.69699999999995 413.93300000000005 344.60299999999995 413.89000000000004 L 338.11469999999997 413.89000000000004 L 338.11469999999997 407.40170000000006 C 338.063919 392.31970000000007 344.0483 377.83970000000005 354.73969999999997 367.19470000000007 L 453.38469999999995 268.5497000000001 C 457.28309999999993 264.1942000000001 462.80269999999996 261.6317000000001 468.64269999999993 261.4716000000001 C 474.4864999999999 261.3075400000001 480.1386999999999 263.55750000000006 484.27169999999995 267.69040000000007 C 488.4044999999999 271.82320000000004 490.6544999999999 277.47560000000004 490.49049999999994 283.31540000000007 C 490.32643999999993 289.15920000000006 487.76779999999997 294.67840000000007 483.41239999999993 298.57340000000005 z" stroke-linecap="round"/>
        </g>
        <g transform="matrix(0.26 0 0 0.26 37.77 42.79)" id="7kMBESULdO1eH8F6zfqCh">
        <path style="stroke: none; stroke-width: 1; stroke-dasharray: none; stroke-linecap: butt; stroke-dashoffset: 0; stroke-linejoin: miter; stroke-miterlimit: 4; fill-rule: nonzero; opacity: 1;" vector-effect="non-scaling-stroke" transform=" translate(-366.54, -385.48)" d="M 281.29 527.55 L 451.78000000000003 527.55 C 466.85400000000004 527.55 481.307 521.5617 491.968 510.905 C 502.624 500.24899999999997 508.613 485.792 508.613 470.721 L 508.613 394.948 L 470.726 394.948 L 470.726 470.721 C 470.726 475.7444 468.7299 480.56080000000003 465.1752 484.116 C 461.62440000000004 487.66679999999997 456.8041 489.6629 451.78020000000004 489.6629 L 281.2902 489.6629 C 276.26680000000005 489.6629 271.44640000000004 487.66679999999997 267.89520000000005 484.116 C 264.3405 480.56129999999996 262.34830000000005 475.7449 262.34830000000005 470.721 L 262.34830000000005 300.231 C 262.34830000000005 295.2076 264.3405000000001 290.39119999999997 267.89520000000005 286.836 C 271.446 283.28520000000003 276.26630000000006 281.2891 281.2902 281.2891 L 357.06320000000005 281.2891 L 357.06320000000005 243.40210000000002 L 281.2902 243.40210000000002 C 266.22020000000003 243.40210000000002 251.76320000000004 249.39040000000003 241.10620000000003 260.0471 C 230.44620000000003 270.7071 224.46120000000002 285.1601 224.46120000000002 300.23109999999997 L 224.46120000000002 470.7211 C 224.46120000000002 485.7911 230.4456 500.24809999999997 241.10620000000003 510.90509999999995 C 251.76220000000004 521.5610999999999 266.2192 527.5500999999999 281.2902 527.5500999999999 z" stroke-linecap="round"/>
        </g>
    </svg>

    <svg id="eye" version="1.1" viewBox="0 0 752 752" xmlns="http://www.w3.org/2000/svg">
        <path d="m376 297.07c-43.359 0-78.93 35.57-78.93 78.93s35.57 78.93 78.93 78.93 78.93-35.57 78.93-78.93-35.57-78.93-78.93-78.93zm0 39.465c22.031 0 39.465 17.434 39.465 39.465s-17.434 39.465-39.465 39.465-39.465-17.434-39.465-39.465 17.434-39.465 39.465-39.465zm0-118.39c-118.85 0-171.1 100.43-211.82 144.45l-13.41 14.492 28.98 26.824 13.41-14.492c48.375-52.301 85.926-131.81 182.84-131.81 89.312 0 127.93 66.871 171.35 118.39-43.414 51.523-82.039 118.39-171.35 118.39-61.93 0-98.668-31.594-131.07-69.023l-12.91-14.914-29.867 25.82 12.949 14.953c35.281 40.75 84.957 82.629 160.91 82.629 118.85 0 171.1-100.43 211.82-144.45l12.371-13.41-12.371-13.41c-40.715-44.02-92.965-144.45-211.82-144.45z"/>
    </svg>

    <svg id="star" viewBox="0 0 21 21" xmlns="http://www.w3.org/2000/svg">
        <path d="M18.6944 7.68548L13.4561 7.09148L11.2562 2.43166C11.137 2.17902 10.8772 2.01709 10.5913 2.01709C10.3054 2.01709 10.0457 2.17902 9.92638 2.43166L7.72657 7.09149L2.48817 7.6855C2.20417 7.71771 1.9655 7.90781 1.87714 8.17218C1.78879 8.43654 1.86694 8.72672 2.07723 8.91507L5.95604 12.389L4.91836 17.4159C4.86211 17.6884 4.97433 17.9679 5.20565 18.1313C5.43697 18.2946 5.745 18.312 5.99424 18.1758L10.5913 15.663L15.1884 18.1758C15.4376 18.312 15.7456 18.2946 15.977 18.1312C16.2083 17.9679 16.3205 17.6884 16.2642 17.4159L15.2266 12.389L19.1054 8.91505C19.3157 8.72671 19.3938 8.43653 19.3055 8.17216C19.2171 7.90779 18.9784 7.71769 18.6944 7.68548Z"></path>
    </svg>

    <svg id="pencil" viewBox="0 0 21 21" xmlns="http://www.w3.org/2000/svg">
        <path d="M14.1613 3.62323L17.4947 6.95656C17.8201 7.282 17.8201 7.80964 17.4947 8.13507L8.328 17.3017C8.21167 17.4181 8.0635 17.4974 7.90218 17.5296L3.73551 18.363C3.15241 18.4796 2.63831 17.9655 2.75493 17.3824L3.58826 13.2157C3.62053 13.0544 3.69982 12.9062 3.81616 12.7899L12.9828 3.62323C13.3083 3.29779 13.8359 3.29779 14.1613 3.62323ZM11.4883 7.47415L5.17308 13.79L4.63437 16.4835L7.3279 15.9448L13.6433 9.62915L11.4883 7.47415ZM13.5721 5.391L12.6674 6.29582L14.8216 8.44998L15.7269 7.54582L13.5721 5.391Z"></path>
    </svg>


    <svg id="auction" xmlns="http://www.w3.org/2000/svg" version="1.1" viewBox="0 0 752 752">

        <path d="m444.68 539.4v-19.023c0-12.391-10.023-22.414-22.336-22.414h-3.9453l-0.003906-11.133c0-12.391-10.023-22.414-22.414-22.414h-168.68c-12.312 0-22.336 10.023-22.336 22.414v11.129h-3.9453c-12.312 0-22.336 10.023-22.336 22.414v19.023c0 4.3398 3.4727 7.8945 7.8945 7.8945h250.21c4.3398 0 7.8906-3.5508 7.8906-7.8906z"/>
        <path d="m546.89 400.01c12.234 0 23.285-8.6016 25.891-21.074 2.9219-14.207-6.2344-28.258-20.523-31.176l-198.59-41.203c0.94922-8.7617 1.4219-17.523 1.3438-26.285l10.023 2.0508c0.55078 0.078125 1.0273 0.15625 1.5781 0.15625 1.5781 0 3.0781-0.47266 4.3398-1.3398 1.7383-1.1055 3-2.9219 3.3945-4.9727l8.207-39.387c0.39453-2.0508 0-4.1836-1.1836-5.918-1.1055-1.7344-2.9219-3-4.9727-3.3945l-108.84-22.574c-4.2617-0.94531-8.4453 1.8164-9.3945 6.0781l-8.1289 39.387c-0.86719 4.2617 1.8945 8.4453 6.1562 9.3945l10.023 2.0508c-14.285 32.203-21.547 67.406-21.312 102.69l-10.023-2.0508c-2.0508-0.47266-4.1836-0.078125-5.918 1.1055-1.8164 1.1055-3 2.9219-3.4727 4.9727l-8.1289 39.383c-0.86719 4.2617 1.8164 8.4453 6.1562 9.3125l108.84 22.652c0.55078 0.078124 1.0273 0.15625 1.5781 0.15625 1.5781 0 3.0781-0.47266 4.3398-1.3398 1.7344-1.1055 3-2.9219 3.3945-4.9727l8.207-39.387c0.86719-4.2617-1.8945-8.4453-6.1562-9.3125l-10.023-2.0508c3.5508-8.0508 6.707-16.34 9.3945-24.707l198.43 41.203c1.8203 0.39453 3.6328 0.55469 5.3711 0.55469z"/>

    </svg>

    <svg id="cabinet" xmlns="http://www.w3.org/2000/svg" version="1.1" viewBox="0 0 752 752">

        <path d="m376 152.62c-121.44 0-220.23 98.793-220.23 220.23 0 121.44 98.797 220.24 220.23 220.24 121.44 0 220.24-98.797 220.24-220.24 0.003907-121.44-98.797-220.23-220.24-220.23zm0 413.62c-106.64 0-193.39-86.75-193.39-193.39 0-106.63 86.75-193.38 193.39-193.38s193.39 86.75 193.39 193.38c0 106.64-86.75 193.39-193.39 193.39z"/>
        <path d="m439.14 284.32c0 34.875-28.27 63.145-63.145 63.145-34.871 0-63.141-28.27-63.141-63.145 0-34.871 28.27-63.141 63.141-63.141 34.875 0 63.145 28.27 63.145 63.141"/>
        <path d="m376 356.81c-65.5 0-118.6 53.098-118.6 118.6s237.2 65.5 237.2 0c-0.003907-65.5-53.102-118.6-118.61-118.6z"/>

    </svg>

    <svg id='car' xmlns="http://www.w3.org/2000/svg" version="1.1" viewBox="0 0 752 752">
        <defs>
            <clipPath id="car-clip">
                <path d="m139.21 215h473.58v322h-473.58z"/>
            </clipPath>
        </defs>
        <g clip-path="url(#car-clip)">
            <path d="m231.21 238.75c7.543-9.0508 22.625-13.574 33.934-15.082 75.41-11.312 146.3-11.312 221.71 0 10.559 1.5078 26.395 6.0312 33.18 15.082 8.2969 27.148 15.836 54.297 23.379 82.199 3.7695-3.0156 8.2969-4.5234 13.574-4.5234h32.426c13.574 0 23.379 10.559 23.379 23.379 0 12.066-10.559 22.625-23.379 22.625h-15.082c4.5234 9.8047 8.2969 23.379 8.2969 43.738 0.75391 39.215 0.75391 78.426 0.75391 117.64 0 7.543-6.0312 12.82-12.82 12.82h-58.82c-6.7852 0-12.82-5.2773-12.82-12.82v-15.836h-245.84v15.836c0 7.543-6.0312 12.82-13.574 12.82h-58.066c-7.543 0-13.574-5.2773-13.574-12.82 0-39.215 0.75391-78.426 0.75391-117.64 0-20.359 3.7695-33.934 8.2969-43.738h-15.082c-12.066 0-22.625-10.559-22.625-22.625 0-12.82 9.8047-23.379 22.625-23.379h33.18c4.5234 0 9.0508 1.5078 12.82 4.5234 7.543-27.902 15.082-55.051 23.379-82.199zm91.246 205.87h107.08c6.7852 0 12.066 5.2773 12.066 12.066 0 6.7852-5.2773 12.066-12.066 12.066h-107.08c-6.7852 0-12.066-5.2773-12.066-12.066 0-6.7852 5.2773-12.066 12.066-12.066zm-69.379-195.31c-6.0312 22.625-12.066 46-18.852 69.379 92-9.8047 190.79-9.8047 282.79 0-6.0312-23.379-12.82-46.754-18.852-69.379-80.691-14.328-163.64-14.328-245.09 0zm259.41 127.45c-14.328 0-26.395 11.312-26.395 25.641 0 14.328 12.066 26.395 26.395 26.395 14.328 0 25.641-12.066 25.641-26.395 0-14.328-11.312-25.641-25.641-25.641zm-272.99 0c14.328 0 25.641 11.312 25.641 25.641 0 14.328-11.312 26.395-25.641 26.395s-25.641-12.066-25.641-26.395c0-14.328 11.312-25.641 25.641-25.641z" fill-rule="evenodd"/>
        </g>
    </svg>


    <svg id="logout" viewBox="0 0 18 21" xmlns="http://www.w3.org/2000/svg">
        <path fill-rule="evenodd" clip-rule="evenodd" d="M4.9998 0.857971V2.85797H14.4998L10.9998 4.85797V14.858H4.9998V16.858H10.9998V20.858L17.9998 16.858V0.857971H4.9998ZM12.9998 17.412V6.01897L15.9998 4.30397V15.697L12.9998 17.412Z" ></path>
        <path d="M5.9988 12.858H4.7978L0.799805 8.86097L4.7608 4.85797H5.9568L5.9838 4.88397L5.9858 6.03797L4.1848 7.85797H9.9998V9.85797H4.2008L5.9968 11.654L5.9988 12.858Z"></path>
    </svg>

    
    <svg id="calendar" viewBox="0 0 60 54" xmlns="http://www.w3.org/2000/svg">

        <g transform="matrix(0.1 0 0 0.1 30.22 26.06)" id="3X_NzPpVUBCN-fOTg0tyS"  >
            <g style="" vector-effect="non-scaling-stroke"   >
                <g transform="matrix(1.33 0 0 1.33 -0.01 0)" id="aXkH7B05ybDFKFDW7dcbB"  >
                    <path style="stroke: none; stroke-width: 1; stroke-dasharray: none; stroke-linecap: butt; stroke-dashoffset: 0; stroke-linejoin: miter; stroke-miterlimit: 4; fill-rule: nonzero; opacity: 1;" vector-effect="non-scaling-stroke"  transform=" translate(-375.99, -376)" d="M 533.86 223.07 L 489.462 223.07 L 489.462 198.406 C 489.462 193.11690000000002 486.6417 188.23000000000002 482.05969999999996 185.59 C 477.48159999999996 182.9455 471.84069999999997 182.9455 467.26269999999994 185.59 C 462.68069999999994 188.2306 459.8603999999999 193.1173 459.8603999999999 198.406 L 459.8603999999999 223.07 L 292.1303999999999 223.07 L 292.1303999999999 198.406 C 292.1303999999999 193.11690000000002 289.3100999999999 188.23000000000002 284.7319999999999 185.59 C 280.1538999999999 182.9455 274.5129999999999 182.9455 269.9309999999999 185.59 C 265.3528999999999 188.2306 262.53259999999995 193.1173 262.53259999999995 198.406 L 262.53259999999995 223.07 L 218.13459999999995 223.07 C 203.74759999999995 223.081719 189.95059999999995 228.8005 179.77559999999994 238.976 C 169.60359999999994 249.148 163.88059999999993 262.945 163.86959999999993 277.335 L 163.86959999999993 514.125 C 163.88131899999993 528.516 169.60399999999993 542.309 179.77559999999994 552.484 C 189.95159999999993 562.6600000000001 203.74859999999995 568.379 218.13459999999995 568.39 L 533.8546 568.39 C 548.2416000000001 568.378281 562.0386 562.6595 572.2136 552.484 C 582.3856000000001 542.308 588.1086 528.515 588.1156000000001 514.125 L 588.1156000000001 277.33500000000004 C 588.1077880000001 262.944 582.3851000000001 249.14700000000005 572.2136 238.97600000000003 C 562.0376 228.80000000000004 548.2406000000001 223.08100000000002 533.8546 223.07000000000002 z M 218.14 252.668 L 262.538 252.668 L 262.538 277.336 C 262.538 282.6212 265.3583 287.50800000000004 269.9364 290.152 C 274.5184 292.7965 280.1594 292.7965 284.7374 290.152 C 289.31539999999995 287.5075 292.13579999999996 282.6208 292.13579999999996 277.336 L 292.13579999999996 252.668 L 459.8657999999999 252.668 L 459.8657999999999 277.336 C 459.8657999999999 282.6212 462.6860999999999 287.50800000000004 467.26809999999995 290.152 C 471.84619999999995 292.7965 477.48709999999994 292.7965 482.0651 290.152 C 486.64709999999997 287.5075 489.4674 282.6208 489.4674 277.336 L 489.4674 252.668 L 533.8654 252.668 C 540.4006 252.679719 546.6704 255.28130000000002 551.2954 259.9063 C 555.9164999999999 264.5274 558.5181 270.7973 558.5298 277.3363 L 558.5298 321.7343 L 193.4798 321.7343 L 193.4798 277.3363 C 193.487613 270.7972 196.09310000000002 264.52729999999997 200.7142 259.9063 C 205.3392 255.2813 211.6052 252.6797 218.1442 252.66799999999998 z M 533.86 538.788 L 218.14 538.788 C 211.6009 538.780187 205.33499999999998 536.1786 200.70999999999998 531.5536 C 196.08889999999997 526.9286 193.4834 520.6626 193.4756 514.1236 L 193.4756 351.33360000000005 L 558.5255999999999 351.33360000000005 L 558.5255999999999 514.1236 C 558.513881 520.6627 555.9123 526.9286 551.2911999999999 531.5536 C 546.6661999999999 536.1786 540.3961999999999 538.7801999999999 533.8611999999999 538.788 z" stroke-linecap="round" />
                </g>
                <g transform="matrix(1.33 0 0 1.33 0 79.19)" id="q1cTVWWqLOsZFyRe4hW4D"  >
                    <path style="stroke: none; stroke-width: 1; stroke-dasharray: none; stroke-linecap: butt; stroke-dashoffset: 0; stroke-linejoin: miter; stroke-miterlimit: 4; fill-rule: nonzero; opacity: 1;" vector-effect="non-scaling-stroke"  transform=" translate(-376, -435.39)" d="M 424.74 385.28 L 356.267 453.729 L 327.259 424.745 C 323.4817 421.2255 318.1418 419.9286 313.173 421.3231 C 308.2003 422.7176 304.3175 426.60040000000004 302.923 431.5731 C 301.5246 436.5458 302.82144 441.88210000000004 306.341 445.6591 L 345.80600000000004 485.1241 L 345.809906 485.1241 C 348.579406 487.9053 352.341106 489.4718 356.266906 489.4718 C 360.192706 489.4718 363.954406 487.9054 366.723906 485.1241 L 445.653906 406.1941 C 449.173406 402.41679999999997 450.470306 397.07689999999997 449.075806 392.1081 C 447.681306 387.1354 443.798506 383.2526 438.825806 381.8581 C 433.853106 380.4636 428.516806 381.76044299999995 424.739806 385.28 z" stroke-linecap="round" />
                </g>
            </g>
        </g>
 
    </svg>

    <svg id="arrow-left" xmlns="http://www.w3.org/2000/svg" xmlns:xlink="http://www.w3.org/1999/xlink" version="1.1" viewBox="0 0 80 77" xml:space="preserve">
    
        <path style="stroke: none; stroke-width: 1; stroke-dasharray: none; stroke-linecap: butt; stroke-dashoffset: 0; stroke-linejoin: miter; stroke-miterlimit: 4; fill-rule: nonzero; opacity: 1;" vector-effect="non-scaling-stroke" d="M 78.35615 34.50418 C 79.41175 35.56968 80.00375 37.01128 79.99995 38.511979999999994 C 79.99625 40.01277999999999 79.39815 41.45067999999999 78.33765 42.51248 C 77.27705 43.57308 75.83914999999999 44.171079999999996 74.33834999999999 44.17478 L 19.32464999999999 44.17478 L 42.54584999999999 67.396 L 42.54464999999999 67.396 C 43.83214999999999 68.8536 44.28464999999999 70.8687 43.74334999999999 72.737 C 43.20074999999999 74.60409999999999 41.740649999999995 76.0654 39.872249999999994 76.60679999999999 C 38.00514999999999 77.14819999999999 35.98884999999999 76.6968 34.53254999999999 75.40939999999999 L 1.66514999999999 42.53887999999999 L 1.36174999999999 42.21207999999999 L 1.36054999999999 42.21207999999999 C 0.63544999999999 41.374779999999994 0.17294999999998995 40.343779999999995 0.02864999999998985 39.24497999999999 C -0.009550000000010148 38.86517999999999 -0.009550000000010148 38.481579999999994 0.02864999999998985 38.100579999999994 C 0.12234999999998986 36.755179999999996 0.6945499999999899 35.48747999999999 1.6416499999999898 34.52687999999999 L 34.69534999999999 1.4226599999999934 C 36.15294999999999 0.13515999999999329 38.168049999999994 -0.3173400000000066 40.03634999999999 0.22525999999999335 C 41.90464999999999 0.7666599999999933 43.364749999999994 2.2279599999999933 43.90614999999999 4.095059999999993 C 44.44874999999999 5.963359999999993 43.99614999999999 7.978459999999993 42.70874999999999 9.436059999999994 L 19.34834999999999 32.796479999999995 L 74.36204999999998 32.796479999999995 C 75.86774999999999 32.81007999999999 77.30564999999999 33.42417999999999 78.35624999999999 34.501979999999996 z" stroke-linecap="round" />
       
    </svg>

    <svg id="archive" xmlns="http://www.w3.org/2000/svg" xmlns:xlink="http://www.w3.org/1999/xlink" version="1.1" viewBox="0 0 50 47" xml:space="preserve">
        <g transform="matrix(0.2 0 0 0.2 25 24)" id="a8wzQkHQ0N6BRNv6f-08T"  >
            <g style="" vector-effect="non-scaling-stroke"   >
                <g transform="matrix(1.33 0 0 1.33 -0.64 -0.62)" id="NqoZIuQl6-WxmSLUsCldb"  >
                <path style="stroke: none; stroke-width: 1; stroke-dasharray: none; stroke-linecap: butt; stroke-dashoffset: 0; stroke-linejoin: miter; stroke-miterlimit: 4; fill-rule: nonzero; opacity: 1;" vector-effect="non-scaling-stroke"  transform=" translate(-375.52, -375.54)" d="M 460.77 290.29 L 290.28 290.29 C 285.0691 290.29 280.8073 294.55170000000004 280.8073 299.7627 L 280.8073 337.6497 C 280.8073 342.8606 285.069 347.12239999999997 290.28 347.12239999999997 L 295.01439999999997 347.12239999999997 L 295.01439999999997 451.31239999999997 C 295.01439999999997 456.52329999999995 299.2761 460.78509999999994 304.48709999999994 460.78509999999994 L 446.55709999999993 460.78509999999994 C 451.7679999999999 460.78509999999994 456.0297999999999 456.5233999999999 456.0297999999999 451.31239999999997 L 456.0297999999999 347.12239999999997 L 460.7641999999999 347.12239999999997 C 465.9750999999999 347.12239999999997 470.2368999999999 342.86069999999995 470.2368999999999 337.6497 L 470.2368999999999 299.7627 C 470.2329939999999 294.5518 465.97129999999987 290.29 460.7641999999999 290.29 z M 299.75 309.231 L 451.3 309.231 L 451.3 328.17199999999997 L 299.76 328.17199999999997 z M 437.09000000000003 441.831 L 313.96000000000004 441.831 L 313.96000000000004 347.116 L 437.09000000000003 347.116 z" stroke-linecap="round" />
                </g>
                <g transform="matrix(1.33 0 0 1.33 -0.62 -0.63)" id="DDo7rdXE029j_7L027Vi3"  >
                    <path style="stroke: none; stroke-width: 1; stroke-dasharray: none; stroke-linecap: butt; stroke-dashoffset: 0; stroke-linejoin: miter; stroke-miterlimit: 4; fill-rule: nonzero; opacity: 1;" vector-effect="non-scaling-stroke"  transform=" translate(-375.53, -375.53)" d="M 356.59 385 L 394.477 385 C 399.68789999999996 385 403.94969999999995 380.7383 403.94969999999995 375.5273 C 403.94969999999995 370.31640000000004 399.68799999999993 366.05460000000005 394.477 366.05460000000005 L 356.59 366.05460000000005 C 351.3791 366.05460000000005 347.1173 370.31630000000007 347.1173 375.5273 C 347.1173 380.7382 351.379 385 356.59 385 z" stroke-linecap="round" />
                </g>
            </g>
        </g>
    </svg>

    <svg id="download" xmlns="http://www.w3.org/2000/svg" xmlns:xlink="http://www.w3.org/1999/xlink" version="1.1" viewBox="0 0 42 42" xml:space="preserve">
        <g transform="matrix(0.1 0 0 0.1 21.02 21.1)" id="IiUUoa-AVKGDjuYnDDeMw"  >
            <g style="" vector-effect="non-scaling-stroke"   >
                <g transform="matrix(1.33 0 0 1.33 0 -56.82)" id="8c7JIHnYoIXfrNDjw_Qgu"  >
                    <path style="stroke: none; stroke-width: 1; stroke-dasharray: none; stroke-linecap: butt; stroke-dashoffset: 0; stroke-linejoin: miter; stroke-miterlimit: 4; fill-rule: nonzero; opacity: 1;" vector-effect="non-scaling-stroke"  transform=" translate(-376, -333.38)" d="M 376 437.57 C 379.7695 437.566094 383.3789 436.07 386.043 433.402 L 452.91 366.53499999999997 L 432.83200000000005 346.453 L 390.21100000000007 389.07399999999996 L 390.20709300000004 229.19399999999996 L 361.79309300000006 229.19399999999996 L 361.79309300000006 389.07399999999996 L 319.1720930000001 346.453 L 299.0940930000001 366.53499999999997 L 365.9610930000001 433.402 C 368.62519300000014 436.07 372.2344930000001 437.5661 376.0000930000001 437.57 z" stroke-linecap="round" />
                </g>
                <g transform="matrix(1.33 0 0 1.33 -0.13 27.97)" id="ogW_UznUHHwmMAnvPvArz"  >
                    <path style="stroke: none; stroke-width: 1; stroke-dasharray: none; stroke-linecap: butt; stroke-dashoffset: 0; stroke-linejoin: miter; stroke-miterlimit: 4; fill-rule: nonzero; opacity: 1;" vector-effect="non-scaling-stroke"  transform=" translate(-375.9, -396.98)" d="M 376 522.81 C 415.098 522.7865619999999 452.57 507.1689999999999 480.11 479.4189999999999 C 507.65000000000003 451.6689999999999 522.989 414.07899999999995 522.719 374.9889999999999 C 522.44556 335.8909999999999 506.59400000000005 298.5159999999999 478.66800000000006 271.1489999999999 L 458.77700000000004 291.46499999999986 L 458.780906 291.46499999999986 C 481.300906 313.5389999999999 494.085906 343.6879999999999 494.29690600000004 375.22699999999986 C 494.503936 406.7619999999999 482.124906 437.07899999999984 459.898906 459.45399999999984 C 437.67190600000004 481.82899999999984 407.441906 494.41099999999983 375.90290600000003 494.41099999999983 C 344.367906 494.41099999999983 314.13290600000005 481.82899999999984 291.90690600000005 459.45399999999984 C 269.6799060000001 437.07899999999984 257.30190600000003 406.7629999999998 257.51190600000007 375.22699999999986 C 257.71893600000004 343.6879999999999 270.5039060000001 313.5389999999999 293.0279060000001 291.46499999999986 L 273.13690600000007 271.1489999999999 C 245.19590600000006 298.5279999999999 229.33990600000007 335.9259999999999 229.08990600000007 375.04899999999986 C 228.83599600000008 414.1659999999999 244.20290600000007 451.76799999999986 271.7849060000001 479.50899999999984 C 299.3669060000001 507.25099999999986 336.8789060000001 522.8369999999999 375.99490600000007 522.8099999999998 z" stroke-linecap="round" />
                </g>
            </g>
        </g>
    </svg>

    
    <svg id="share" xmlns="http://www.w3.org/2000/svg" viewBox="0 0 327 403" version="1.1" style=""><rect width="100%" height="100%" x="0" y="0" fill="none" stroke="none"/>
    
    <g><path d="m267.5717985534668,118.39799957275392 c32.676,0 59.199,-26.52 59.199,-59.199 c0,-32.676 -26.523,-59.199 -59.199,-59.199 c-32.676,0 -59.199,26.52 -59.199,59.199 c0,5.6836 0.94531,10.891 2.3672,16.102 l-111.76,82.402 c-10.422,-9.9453 -24.629,-15.629 -39.781,-15.629 c-32.676,0 -59.199,26.52 -59.199,59.199 c0,32.676 26.52,59.199 59.199,59.199 c15.629,0 29.836,-6.1562 40.254,-15.629 l111.29,82.875 c-1.4219,5.2109 -2.3672,10.418 -2.3672,16.102 c0,32.676 26.52,59.199 59.199,59.199 c32.676,0 59.199,-26.52 59.199,-59.199 c0,-32.676 -26.52,-59.199 -59.199,-59.199 c-15.156,0 -28.887,5.6836 -39.309,15.156 l-112.24,-83.824 c1.4219,-4.7344 1.8945,-9.4727 1.8945,-14.68 c0,-5.2109 -0.94531,-9.9453 -1.8945,-14.68 l111.77,-83.352 c10.418,9 24.625,15.156 39.781,15.156 z" /></g>
    </svg>

    <svg id="achtung" xmlns="http://www.w3.org/2000/svg" xmlns:xlink="http://www.w3.org/1999/xlink" version="1.1" viewBox="0 0 100 101" xml:space="preserve">
        <defs>
        </defs>
        <g transform="matrix(1 0 0 1 50.77 50.77)" id="xFGNl7uDxaA9fZAB1LDRz" clip-path="url(#CLIPPATH_2)"  >
        <clipPath id="CLIPPATH_2" >
            <path transform="matrix(1 0 0 1 -0.01 -0.01) translate(-376, -376)" id="a" d="M 139.21 139.21 L 612.79 139.21 L 612.79 612.79 L 139.20999999999998 612.79 z" stroke-linecap="round" />
        </clipPath>
        <path style="stroke: none; stroke-width: 1; stroke-dasharray: none; stroke-linecap: butt; stroke-dashoffset: 0; stroke-linejoin: miter; stroke-miterlimit: 4; fill-rule: nonzero; opacity: 1;" vector-effect="non-scaling-stroke"  transform=" translate(-50, -50)" d="M 97.9243 88.14038 C 96.20529 86.10037 94.94529 84.46336 93.93229000000001 81.53635 C 91.83728 73.63632 94.28729000000001 64.58127999999999 94.28729000000001 64.58127999999999 L 94.27329000000002 64.59027999999999 C 95.88029000000002 59.70925999999999 96.76330000000002 54.492239999999995 96.76330000000002 49.06420999999999 C 96.76530000000001 21.964089999999988 75.10023000000001 -1.4210854715202004e-14 48.383150000000015 -1.4210854715202004e-14 C 21.665070000000014 -1.4210854715202004e-14 1.4210854715202004e-14 21.967089999999985 1.4210854715202004e-14 49.06420999999999 C 1.4210854715202004e-14 70.03729999999999 12.981040000000014 87.92237999999999 31.232100000000013 94.94540999999998 L 31.223100000000013 94.94840999999998 C 31.223100000000013 94.94840999999998 31.33810000000001 94.99440999999999 31.546100000000013 95.07040999999998 C 33.938110000000016 95.97240999999998 36.419120000000014 96.68241999999998 38.97412000000001 97.19441999999998 C 48.862150000000014 99.45642999999998 67.91721000000001 102.02143999999998 94.44929000000002 97.51241999999998 C 101.03931000000001 96.36541999999997 101.16531000000002 91.98639999999997 97.92630000000003 88.13937999999997 z M 48.83915 71.69931 C 45.62614 71.69931 43.02113 69.0563 43.02113 65.79928 C 43.02113 62.54026999999999 45.62614 59.90025 48.83915 59.90025 C 52.051159999999996 59.90025 54.657169999999994 62.54126 54.657169999999994 65.79928 C 54.657169999999994 69.05628999999999 52.051159999999996 71.69931 48.83915 71.69931 z M 54.65717 48.68321 C 54.65717 51.942220000000006 52.05216 54.58224 48.839150000000004 54.58224 C 45.62614000000001 54.58224 43.02113000000001 51.94123 43.02113000000001 48.68321 L 43.02113000000001 34.20015 C 43.02113000000001 30.942140000000002 45.62614000000001 28.30012 48.839150000000004 28.30012 C 52.05116 28.30012 54.65717 30.94213 54.65717 34.20015 z" stroke-linecap="round" />
        </g>
    </svg>

    <symbol id="location" viewBox="0 0 100 130" xml:space="preserve">

      <g transform="matrix(0.2 0 0 0.2 50 65)" id="B30vtIuNAQSVPabpnYIkj"  >
      <g style="" vector-effect="non-scaling-stroke"   >
          <g transform="matrix(1.33 0 0 1.33 0 -0.01)" id="MM2vofpG4z1fgHkUl6YIY" clip-path="url(#CLIPPATH_8)"  >
      <clipPath id="CLIPPATH_8" >
        <path transform="matrix(1 0 0 1 0 0.01) translate(-376, -376)" id="a" d="M 190 139.21 L 562 139.21 L 562 612.79 L 190 612.79 z" stroke-linecap="round" />
      </clipPath>
      <path style="stroke: none; stroke-width: 1; stroke-dasharray: none; stroke-linecap: butt; stroke-dashoffset: 0; stroke-linejoin: miter; stroke-miterlimit: 4; fill-rule: nonzero; opacity: 1;" vector-effect="non-scaling-stroke"  transform=" translate(-376, -375.99)" d="M 561.32 320.71 C 560.7496900000001 272.089 540.922 225.67499999999998 506.18300000000005 191.64999999999998 C 471.44100000000003 157.62699999999998 424.62800000000004 138.76699999999997 376.00300000000004 139.20499999999998 C 327.38200000000006 138.76749999999998 280.56500000000005 157.62699999999998 245.82300000000004 191.64999999999998 C 211.08100000000002 225.67299999999997 191.25700000000003 272.08799999999997 190.68600000000004 320.71 C 190.60006200000004 359.90099999999995 203.48700000000002 398.022 227.33800000000002 429.12 L 359.428 604.14 L 359.42409299999997 604.14 C 360.088153 604.94859 360.810793 605.7064 361.588193 606.4055999999999 L 362.72099299999996 607.4368 L 363.43974299999996 607.4368 L 363.43974299999996 607.4328939999999 C 364.81864299999995 608.3664839999999 366.30304299999995 609.124294 367.86554299999995 609.6984939999999 L 369.40854299999995 610.2141139999999 L 369.4124489999999 610.2141139999999 C 371.44364899999994 611.4446139999999 373.6702489999999 612.3157139999998 375.9983489999999 612.7883139999999 C 377.9202489999999 612.7453449999999 379.8264489999999 612.4328439999999 381.6624489999999 611.8625339999999 L 383.20544899999993 611.3469039999999 C 384.76794899999993 610.7726839999999 386.2562489999999 610.0110039999998 387.63514899999996 609.0813039999999 L 388.35389899999996 609.0813039999999 L 389.48669899999993 608.0501039999999 C 390.2640389999999 607.350884 390.98669899999993 606.597004 391.6468989999999 605.7884039999999 L 523.7368989999999 430.7684039999999 C 548.2678989999998 399.34240399999993 561.5028989999998 360.5774039999999 561.3148989999999 320.7084039999999 z M 376.00000000000006 180.39 C 413.71100000000007 179.92515999999998 450.06600000000003 194.43699999999998 477.09000000000003 220.74499999999998 C 504.11 247.05399999999997 519.594 283.00699999999995 520.133 320.71399999999994 C 520.1681570000001 350.95599999999996 510.17600000000004 380.35499999999996 491.71900000000005 404.31199999999995 L 375.999 558.0219999999999 L 260.389 404.4219999999999 C 241.87300000000002 380.4489999999999 231.842 351.0079999999999 231.869 320.71899999999994 C 232.41197 283.01199999999994 247.892 247.05899999999994 274.916 220.74999999999994 C 301.939 194.44099999999995 338.295 179.92999999999995 376.006 180.39499999999995 z" stroke-linecap="round" />
      </g>
          <g transform="matrix(1.33 0 0 1.33 0 -73.71)" id="qRVjkFA0SAgRYsBClDMYc"  >
      <path style="stroke: none; stroke-width: 1; stroke-dasharray: none; stroke-linecap: butt; stroke-dashoffset: 0; stroke-linejoin: miter; stroke-miterlimit: 4; fill-rule: nonzero; opacity: 1;" vector-effect="non-scaling-stroke"  transform=" translate(-376, -320.71)" d="M 376 392.78 C 395.113 392.78 413.445 385.19019999999995 426.961 371.67499999999995 C 440.47700000000003 358.15899999999993 448.06600000000003 339.82699999999994 448.06600000000003 320.71399999999994 C 448.06600000000003 301.60099999999994 440.4762 283.2729999999999 426.961 269.75699999999995 C 413.445 256.24099999999993 395.113 248.64799999999994 376 248.64799999999994 C 356.887 248.64799999999994 338.55899999999997 256.24179999999996 325.043 269.75699999999995 C 311.527 283.27299999999997 303.934 301.60099999999994 303.934 320.71399999999994 C 303.934 339.82699999999994 311.5278 358.15899999999993 325.043 371.67499999999995 C 338.5582 385.191 356.887 392.78 376 392.78 z M 376 289.83 L 376 289.83390599999996 C 384.1914 289.83390599999996 392.047 293.08780599999994 397.84 298.87690599999996 C 403.633 304.66990599999997 406.88689999999997 312.524906 406.88689999999997 320.71690599999994 C 406.88689999999997 328.9089059999999 403.633 336.76390599999996 397.84 342.5569059999999 C 392.04699999999997 348.3499059999999 384.19199999999995 351.6038059999999 376 351.6038059999999 C 367.80800000000005 351.6038059999999 359.953 348.3499059999999 354.16 342.5569059999999 C 348.3709 336.7639059999999 345.117 328.9089059999999 345.117 320.71690599999994 C 345.117 312.524906 348.3709 304.6699059999999 354.16 298.87690599999996 C 359.95300000000003 293.08780599999994 367.80800000000005 289.83390599999996 376 289.83390599999996 z" stroke-linecap="round" />
      </g>
    </g>
    </g>
  </symbol>

  <symbol viewBox="0 0 16 16" id="filter"><path fill-rule="evenodd" clip-rule="evenodd" d="M5 6a1.5 1.5 0 1 0 0-3 1.5 1.5 0 0 0 0 3zm0 1.5c1.38 0 2.542-.932 2.892-2.2H16V3.8H7.918a3.001 3.001 0 0 0-5.836 0H0v1.5h2.108A3.001 3.001 0 0 0 5 7.5zm6 5.5a1.5 1.5 0 1 1 0-3 1.5 1.5 0 0 1 0 3zm0 1.5a3.001 3.001 0 0 1-2.892-2.2H0v-1.5h8.082a3.001 3.001 0 0 1 5.836 0H16v1.5h-2.108A3.001 3.001 0 0 1 11 14.5z"></path></symbol>

</svg>