<svg style="display: none" xmlns="http://www.w3.org/2000/svg" xmlns:xlink="http://www.w3.org/1999/xlink">

    <svg id="bin" viewBox="0 0 80 100" xml:space="preserve">
        <path style="stroke: none; stroke-width: 1; stroke-dasharray: none; stroke-linecap: butt; stroke-dashoffset: 0; stroke-linejoin: miter; stroke-miterlimit: 4; fill: var(--color-svg-fill); fill-rule: nonzero; opacity: 1;" vector-effect="non-scaling-stroke" d="M 80.00178 12.5 L 80.00178 17.5 C 80.00178 18.88 78.88177999999999 19.999 77.50178 19.999 L 2.5 19.999 C 1.119 19.999 0 18.88 0 17.5 L 0 12.5 C 0 11.119 1.119 10 2.5 10 L 24.99989 10 L 24.99989 5 C 24.99989 2.239 27.23889 0 29.99989 0 L 50.00078 0 C 52.76278 0 55.00078 2.238 55.00078 5 L 55.00078 10 L 77.50166999999999 10 C 78.88166999999999 10 80.00166999999999 11.119 80.00166999999999 12.5 z M 9.35 90.69897 C 9.718 95.94697000000001 14.088999999999999 100.01197 19.351 99.99997 L 60.74989 99.99997 C 66.01089 100.01297000000001 70.38189 95.94697000000001 70.75089 90.69897 L 75.00089 29.999990000000004 L 4.999110000000002 29.999990000000004 z" stroke-linecap="round"/>
    </svg>

    <svg id="check-empty" xmlns="http://www.w3.org/2000/svg" viewBox="0 0 24 24">
        <g>
            <path fill="none" d="M0 0h24v24H0z"/>
            <path d="M12 22C6.477 22 2 17.523 2 12S6.477 2 12 2s10 4.477 10 10-4.477 10-10 10zm0-2a8 8 0 1 0 0-16 8 8 0 0 0 0 16z"/>
        </g>
    </svg>

    <svg id="check-checked" xmlns="http://www.w3.org/2000/svg" viewBox="0 0 24 24">
        <path fill-rule="evenodd" d="M1 12C1 5.925 5.925 1 12 1s11 4.925 11 11-4.925 11-11 11S1 18.075 1 12zm16.28-2.72a.75.75 0 00-1.06-1.06l-5.97 5.97-2.47-2.47a.75.75 0 00-1.06 1.06l3 3a.75.75 0 001.06 0l6.5-6.5z"/>
    </svg>

    <svg id="check" xmlns="http://www.w3.org/2000/svg" xmlns:xlink="http://www.w3.org/1999/xlink" version="1.1" x="0px" y="0px"  viewBox="0 0 405.272 405.272" style="enable-background:new 0 0 405.272 405.272;" xml:space="preserve">
    <g>
        <path d="M393.401,124.425L179.603,338.208c-15.832,15.835-41.514,15.835-57.361,0L11.878,227.836   c-15.838-15.835-15.838-41.52,0-57.358c15.841-15.841,41.521-15.841,57.355-0.006l81.698,81.699L336.037,67.064   c15.841-15.841,41.523-15.829,57.358,0C409.23,82.902,409.23,108.578,393.401,124.425z"/>
    </g>
    <g>
    </g>
    <g>
    </g>
    <g>
    </g>
    <g>
    </g>
    <g>
    </g>
    <g>
    </g>
    <g>
    </g>
    <g>
    </g>
    <g>
    </g>
    <g>
    </g>
    <g>
    </g>
    <g>
    </g>
    <g>
    </g>
    <g>
    </g>
    <g>
    </g>
    </svg>

    <svg id="cross" xmlns="http://www.w3.org/2000/svg" xmlns:xlink="http://www.w3.org/1999/xlink" version="1.1"  x="0px" y="0px"  viewBox="0 0 41.756 41.756" style="enable-background:new 0 0 41.756 41.756;" xml:space="preserve">
    <g>
        <path d="M27.948,20.878L40.291,8.536c1.953-1.953,1.953-5.119,0-7.071c-1.951-1.952-5.119-1.952-7.07,0L20.878,13.809L8.535,1.465   c-1.951-1.952-5.119-1.952-7.07,0c-1.953,1.953-1.953,5.119,0,7.071l12.342,12.342L1.465,33.22c-1.953,1.953-1.953,5.119,0,7.071   C2.44,41.268,3.721,41.755,5,41.755c1.278,0,2.56-0.487,3.535-1.464l12.343-12.342l12.343,12.343   c0.976,0.977,2.256,1.464,3.535,1.464s2.56-0.487,3.535-1.464c1.953-1.953,1.953-5.119,0-7.071L27.948,20.878z"/>
    </g>
    <g>
    </g>
    <g>
    </g>
    <g>
    </g>
    <g>
    </g>
    <g>
    </g>
    <g>
    </g>
    <g>
    </g>
    <g>
    </g>
    <g>
    </g>
    <g>
    </g>
    <g>
    </g>
    <g>
    </g>
    <g>
    </g>
    <g>
    </g>
    <g>
    </g>
    </svg>

</svg>